<?xml version="1.0" encoding="UTF-8" standalone="no"?>
<!DOCTYPE svg PUBLIC "-//W3C//DTD SVG 1.1//EN" "http://www.w3.org/Graphics/SVG/1.1/DTD/svg11.dtd">
<svg version="1.1" xmlns="http://www.w3.org/2000/svg" xmlns:xlink="http://www.w3.org/1999/xlink" preserveAspectRatio="xMidYMid meet" viewBox="-0.9534161490683251 2.220807453416148 33.8136645962733 27.465217391304357" width="29" height="25"><defs><path d="M21.81 5.88C21.81 5.85 21.81 5.83 21.81 5.83C21.81 5.12 21.53 4.44 21.05 3.99C20.56 3.5 19.91 3.22 19.2 3.22C18.35 3.22 11.55 3.22 10.7 3.22C9.97 3.22 9.31 3.5 8.83 3.99C8.35 4.47 8.07 5.12 8.07 5.83C8.07 5.83 8.07 5.85 8.07 5.88C5.26 5.88 3.7 5.88 3.39 5.88C2.46 5.88 1.63 6.25 1.04 6.88C0.44 7.47 0.05 8.32 0.05 9.23C0.05 10.64 0.05 21.93 0.05 23.34C0.05 24.28 0.42 25.1 1.04 25.69C1.63 26.29 2.48 26.69 3.39 26.69C5.7 26.69 24.2 26.69 26.52 26.69C27.45 26.69 28.27 26.32 28.87 25.69C29.46 25.1 29.86 24.25 29.86 23.34C29.86 21.93 29.86 10.64 29.86 9.23C29.86 8.29 29.49 7.47 28.87 6.88C28.27 6.25 27.45 5.88 26.52 5.88C26.2 5.88 24.63 5.88 21.81 5.88ZM27.82 24.65C27.48 24.99 27.03 25.18 26.52 25.18C24.2 25.18 5.7 25.18 3.39 25.18C2.88 25.18 2.43 24.99 2.09 24.65C1.75 24.31 1.55 23.85 1.55 23.34C1.55 21.93 1.55 10.64 1.55 9.23C1.55 8.72 1.75 8.27 2.09 7.93C2.43 7.59 2.88 7.39 3.39 7.39C3.94 7.39 8.31 7.39 8.86 7.39C9.29 7.39 9.63 7.05 9.63 6.62C9.63 6.54 9.63 5.88 9.63 5.8C9.63 5.49 9.74 5.2 9.94 5.01C10.14 4.81 10.42 4.69 10.73 4.69C11.58 4.69 18.36 4.69 19.2 4.69C19.52 4.69 19.8 4.81 20 5.01C20.2 5.2 20.31 5.49 20.31 5.8C20.31 5.88 20.31 6.54 20.31 6.62C20.31 7.05 20.65 7.39 21.08 7.39C21.62 7.39 26 7.39 26.54 7.39C27.05 7.39 27.51 7.59 27.85 7.93C28.19 8.27 28.39 8.72 28.39 9.23C28.39 10.17 28.39 14.87 28.39 23.34C28.37 23.34 28.36 23.34 28.36 23.34C28.36 23.85 28.16 24.31 27.82 24.65Z" id="akhZiBb49"></path><path d="M21.81 5.88C21.81 5.85 21.81 5.83 21.81 5.83C21.81 5.12 21.53 4.44 21.05 3.99C20.56 3.5 19.91 3.22 19.2 3.22C18.35 3.22 11.55 3.22 10.7 3.22C9.97 3.22 9.31 3.5 8.83 3.99C8.35 4.47 8.07 5.12 8.07 5.83C8.07 5.83 8.07 5.85 8.07 5.88C5.26 5.88 3.7 5.88 3.39 5.88C2.46 5.88 1.63 6.25 1.04 6.88C0.44 7.47 0.05 8.32 0.05 9.23C0.05 10.64 0.05 21.93 0.05 23.34C0.05 24.28 0.42 25.1 1.04 25.69C1.63 26.29 2.48 26.69 3.39 26.69C5.7 26.69 24.2 26.69 26.52 26.69C27.45 26.69 28.27 26.32 28.87 25.69C29.46 25.1 29.86 24.25 29.86 23.34C29.86 21.93 29.86 10.64 29.86 9.23C29.86 8.29 29.49 7.47 28.87 6.88C28.27 6.25 27.45 5.88 26.52 5.88C26.2 5.88 24.63 5.88 21.81 5.88ZM27.82 24.65C27.48 24.99 27.03 25.18 26.52 25.18C24.2 25.18 5.7 25.18 3.39 25.18C2.88 25.18 2.43 24.99 2.09 24.65C1.75 24.31 1.55 23.85 1.55 23.34C1.55 21.93 1.55 10.64 1.55 9.23C1.55 8.72 1.75 8.27 2.09 7.93C2.43 7.59 2.88 7.39 3.39 7.39C3.94 7.39 8.31 7.39 8.86 7.39C9.29 7.39 9.63 7.05 9.63 6.62C9.63 6.54 9.63 5.88 9.63 5.8C9.63 5.49 9.74 5.2 9.94 5.01C10.14 4.81 10.42 4.69 10.73 4.69C11.58 4.69 18.36 4.69 19.2 4.69C19.52 4.69 19.8 4.81 20 5.01C20.2 5.2 20.31 5.49 20.31 5.8C20.31 5.88 20.31 6.54 20.31 6.62C20.31 7.05 20.65 7.39 21.08 7.39C21.62 7.39 26 7.39 26.54 7.39C27.05 7.39 27.51 7.59 27.85 7.93C28.19 8.27 28.39 8.72 28.39 9.23C28.39 10.17 28.39 14.87 28.39 23.34C28.37 23.34 28.36 23.34 28.36 23.34C28.36 23.85 28.16 24.31 27.82 24.65Z" id="adYBwOm8i"></path><path d="M23.65 10.67C23.65 11.44 24.28 12.06 25.04 12.06C25.81 12.06 26.43 11.44 26.43 10.67C26.43 9.91 25.81 9.29 25.04 9.29C24.28 9.29 23.65 9.91 23.65 10.67Z" id="b3Yd5FbkA"></path><path d="M23.65 10.67C23.65 11.44 24.28 12.06 25.04 12.06C25.81 12.06 26.43 11.44 26.43 10.67C26.43 9.91 25.81 9.29 25.04 9.29C24.28 9.29 23.65 9.91 23.65 10.67Z" id="a6QpPMSaY"></path><path d="M7.98 16.29C7.98 18.21 8.78 19.97 10.02 21.22C11.3 22.49 13.03 23.26 14.95 23.26C16.88 23.26 18.64 22.46 19.88 21.22C21.16 19.94 21.93 18.21 21.93 16.29C21.93 14.36 21.13 12.6 19.88 11.35C18.64 10.11 16.88 9.31 14.95 9.31C13.03 9.31 11.27 10.11 10.02 11.35C8.75 12.63 7.98 14.36 7.98 16.29ZM11.1 20.17C10.11 19.18 9.51 17.82 9.51 16.31C9.51 14.81 10.14 13.45 11.1 12.46C12.09 11.47 13.45 10.87 14.95 10.87C16.46 10.87 17.82 11.5 18.81 12.46C19.8 13.45 20.39 14.81 20.39 16.31C20.42 17.82 19.8 19.18 18.81 20.17C17.82 21.13 16.46 21.76 14.95 21.76C13.45 21.76 12.09 21.13 11.1 20.17Z" id="a9Mw9j8Md"></path><path d="M7.98 16.29C7.98 18.21 8.78 19.97 10.02 21.22C11.3 22.49 13.03 23.26 14.95 23.26C16.88 23.26 18.64 22.46 19.88 21.22C21.16 19.94 21.93 18.21 21.93 16.29C21.93 14.36 21.13 12.6 19.88 11.35C18.64 10.11 16.88 9.31 14.95 9.31C13.03 9.31 11.27 10.11 10.02 11.35C8.75 12.63 7.98 14.36 7.98 16.29ZM11.1 20.17C10.11 19.18 9.51 17.82 9.51 16.31C9.51 14.81 10.14 13.45 11.1 12.46C12.09 11.47 13.45 10.87 14.95 10.87C16.46 10.87 17.82 11.5 18.81 12.46C19.8 13.45 20.39 14.81 20.39 16.31C20.42 17.82 19.8 19.18 18.81 20.17C17.82 21.13 16.46 21.76 14.95 21.76C13.45 21.76 12.09 21.13 11.1 20.17Z" id="b1xKNmZ1yA"></path></defs><g><g><use xlink:href="#akhZiBb49" opacity="1" fill="#ffffff" fill-opacity="1"></use><g><use xlink:href="#akhZiBb49" opacity="1" fill-opacity="0" stroke="#000000" stroke-width="1" stroke-opacity="0"></use></g></g><g><use xlink:href="#adYBwOm8i" opacity="1" fill="#000000" fill-opacity="0"></use><g><use xlink:href="#adYBwOm8i" opacity="1" fill-opacity="0" stroke="#000000" stroke-width="1" stroke-opacity="0"></use></g></g><g><use xlink:href="#b3Yd5FbkA" opacity="1" fill="#ffffff" fill-opacity="1"></use><g><use xlink:href="#b3Yd5FbkA" opacity="1" fill-opacity="0" stroke="#000000" stroke-width="1" stroke-opacity="0"></use></g></g><g><use xlink:href="#a6QpPMSaY" opacity="1" fill="#000000" fill-opacity="0"></use><g><use xlink:href="#a6QpPMSaY" opacity="1" fill-opacity="0" stroke="#000000" stroke-width="1" stroke-opacity="0"></use></g></g><g><use xlink:href="#a9Mw9j8Md" opacity="1" fill="#ffffff" fill-opacity="1"></use><g><use xlink:href="#a9Mw9j8Md" opacity="1" fill-opacity="0" stroke="#000000" stroke-width="1" stroke-opacity="0"></use></g></g><g><use xlink:href="#b1xKNmZ1yA" opacity="1" fill="#000000" fill-opacity="0"></use><g><use xlink:href="#b1xKNmZ1yA" opacity="1" fill-opacity="0" stroke="#000000" stroke-width="1" stroke-opacity="0"></use></g></g></g></svg>