<svg width="215" height="217" viewBox="0 0 215 217" fill="none" xmlns="http://www.w3.org/2000/svg">	
<path d="M188.125 153.256C174.687 127.488 161.25 131.556 146.469 130.2C147.812 134.269 147.812 138.338 147.812 143.763C169.312 149.188 174.687 174.956 174.687 189.875V203.438H147.812V189.875H161.25C161.25 189.875 161.25 155.969 141.094 155.969C120.937 155.969 120.937 188.519 120.937 189.875H134.375V203.438H107.5V189.875C107.5 174.956 112.875 147.831 134.375 143.763C134.375 135.625 133.031 128.844 131.687 126.131C129 124.775 126.312 122.062 126.312 117.994C126.312 109.856 137.062 112.569 145.125 97.65C145.125 97.65 157.219 66.4563 153.187 39.3313H139.75C139.75 36.6188 141.094 35.2625 141.094 32.55C141.094 29.8375 141.094 28.4812 139.75 25.7687H150.5C146.469 12.2062 133.031 0 107.5 0C81.9687 0 68.5312 12.2062 63.1562 27.125H73.9062C73.9062 29.8375 72.5625 31.1938 72.5625 33.9062C72.5625 36.6188 72.5625 37.975 73.9062 40.6875H60.4687C57.7812 67.8125 68.5312 99.0063 68.5312 99.0063C76.5937 112.569 87.3437 109.856 87.3437 119.35C87.3437 126.131 80.625 128.844 72.5625 130.2C69.875 132.913 67.1875 138.337 67.1875 149.188V165.462C75.25 168.175 80.625 176.312 80.625 184.45C80.625 193.944 71.2187 203.438 60.4687 203.438C49.7187 203.438 40.3125 193.944 40.3125 183.094C40.3125 173.6 45.6875 166.819 53.75 164.106V147.831C53.75 141.05 55.0937 135.625 56.4375 130.2C47.0312 131.556 36.2812 135.625 26.875 153.256C18.8125 168.175 14.7812 217 14.7812 217H198.875C200.219 217 196.187 168.175 188.125 153.256ZM87.3437 33.9062C87.3437 23.0562 96.75 13.5625 107.5 13.5625C118.25 13.5625 127.656 23.0562 127.656 33.9062C127.656 44.7562 118.25 54.25 107.5 54.25C96.75 54.25 87.3437 44.7562 87.3437 33.9062Z" fill="white"/>	
<path d="M67.1875 183.094C67.1875 184.892 66.4796 186.617 65.2196 187.889C63.9596 189.161 62.2507 189.875 60.4688 189.875C58.6868 189.875 56.9779 189.161 55.7179 187.889C54.4579 186.617 53.75 184.892 53.75 183.094C53.75 181.295 54.4579 179.57 55.7179 178.299C56.9779 177.027 58.6868 176.312 60.4688 176.312C62.2507 176.312 63.9596 177.027 65.2196 178.299C66.4796 179.57 67.1875 181.295 67.1875 183.094Z" fill="white"/>	
</svg>