<svg xmlns="http://www.w3.org/2000/svg" height="58pt" version="1.1" viewBox="0 -5 58.32805 58" width="58pt">
<g id="surface1">
<path d="M 48.042969 8.777344 L 38.355469 8.777344 C 38.359375 8.679688 38.359375 8.589844 38.355469 8.492188 L 38.355469 2.914062 C 38.355469 1.394531 37.125 0.164062 35.605469 0.164062 L 22.683594 0.164062 C 21.171875 0.171875 19.949219 1.398438 19.949219 2.914062 L 19.949219 8.445312 C 19.945312 8.539062 19.945312 8.632812 19.949219 8.730469 L 10.285156 8.730469 C 5.363281 8.730469 0 11.425781 0 19.015625 L 0 38.445312 C 0 46.039062 5.308594 48.734375 10.285156 48.734375 L 48.042969 48.734375 C 52.964844 48.734375 58.328125 46.039062 58.328125 38.445312 L 58.328125 19.066406 C 58.328125 11.535156 53.003906 8.777344 48.042969 8.777344 Z M 22.410156 8.492188 L 22.410156 2.914062 C 22.410156 2.757812 22.539062 2.632812 22.695312 2.632812 L 35.644531 2.632812 C 35.800781 2.632812 35.925781 2.757812 35.925781 2.914062 L 35.925781 8.445312 C 35.925781 8.597656 35.800781 8.730469 35.644531 8.730469 L 22.683594 8.730469 C 22.546875 8.726562 22.433594 8.628906 22.410156 8.492188 Z M 55.867188 38.433594 C 55.867188 45.496094 50.390625 46.257812 48.042969 46.257812 L 10.285156 46.257812 C 7.9375 46.257812 2.460938 45.496094 2.460938 38.433594 L 2.460938 19.066406 C 2.460938 12.007812 7.9375 11.242188 10.285156 11.242188 L 48.042969 11.242188 C 50.390625 11.242188 55.867188 12.007812 55.867188 19.066406 Z M 55.867188 38.433594 " style=" stroke:none;fill-rule:nonzero;fill:rgb(0%,0%,0%);fill-opacity:1;" />
<path d="M 38.652344 24.066406 L 33.855469 24.066406 L 33.855469 19.273438 C 33.855469 18.59375 33.304688 18.042969 32.625 18.042969 L 25.703125 18.042969 C 25.023438 18.042969 24.472656 18.59375 24.472656 19.273438 L 24.472656 24.066406 L 19.675781 24.066406 C 19 24.066406 18.445312 24.621094 18.445312 25.300781 L 18.445312 32.210938 C 18.445312 32.890625 19 33.445312 19.675781 33.445312 L 24.472656 33.445312 L 24.472656 38.238281 C 24.472656 38.917969 25.023438 39.46875 25.703125 39.46875 L 32.625 39.46875 C 33.304688 39.46875 33.855469 38.917969 33.855469 38.238281 L 33.855469 33.445312 L 38.652344 33.445312 C 39.328125 33.445312 39.882812 32.890625 39.882812 32.210938 L 39.882812 25.300781 C 39.882812 24.621094 39.328125 24.066406 38.652344 24.066406 Z M 37.417969 30.980469 L 32.625 30.980469 C 31.945312 30.980469 31.394531 31.535156 31.394531 32.210938 L 31.394531 37.007812 L 26.933594 37.007812 L 26.933594 32.210938 C 26.933594 31.535156 26.382812 30.980469 25.703125 30.980469 L 20.910156 30.980469 L 20.910156 26.53125 L 25.703125 26.53125 C 26.382812 26.53125 26.933594 25.976562 26.933594 25.300781 L 26.933594 20.503906 L 31.394531 20.503906 L 31.394531 25.300781 C 31.394531 25.976562 31.945312 26.53125 32.625 26.53125 L 37.417969 26.53125 Z M 37.417969 30.980469 " style=" stroke:none;fill-rule:nonzero;fill:rgb(0%,0%,0%);fill-opacity:1;" />
</g>
</svg>