<svg id="Capa_1" enable-background="new 0 0 512 512" height="512" viewBox="0 0 512 512" width="512" xmlns="http://www.w3.org/2000/svg"><g><path d="m460.747 439.163c89.119-102.791 58.111-262.592-63.094-324.93-35.004-67.784-105.754-114.233-187.153-114.233-116.064 0-210.488 94.43-210.488 210.5 0 51.099 18.088 99.427 51.237 137.663l-46.774 46.16c-9.48 9.357-2.913 25.612 10.465 25.677l112.956.538c38.925 56.641 103.228 91.462 173.6 91.462.144 0 195.446-.999 195.561-1 13.333-.064 19.975-16.29 10.464-25.677zm-377.985-101.146c-34.017-34.08-52.752-79.367-52.752-127.517 0-99.528 80.968-180.5 180.49-180.5s180.49 80.972 180.49 180.5c0 95.373-75.473 181.269-186.343 180.403l-153.258-.73 31.293-30.882c5.918-5.842 5.953-15.389.08-21.274zm218.734 143.983c-52.634 0-101.557-22.489-135.565-61.281 57.104.376 41.945.281 44.569.281 135.402 0 236.506-127.009 204.689-259.617 82.966 67.774 89.761 191.779 14.045 267.634-5.874 5.885-5.838 15.433.08 21.274l31.293 30.882c-.119 0-158.995.827-159.111.827z"/><path d="m121.005 166h179.99c8.284 0 14.999-6.716 14.999-15s-6.715-15-14.999-15h-179.99c-8.284 0-14.999 6.716-14.999 15s6.716 15 14.999 15z"/><path d="m121.005 226h179.99c8.284 0 14.999-6.716 14.999-15s-6.715-15-14.999-15h-179.99c-8.284 0-14.999 6.716-14.999 15s6.716 15 14.999 15z"/><path d="m121.005 286h179.99c8.284 0 14.999-6.716 14.999-15s-6.715-15-14.999-15h-179.99c-8.284 0-14.999 6.716-14.999 15s6.716 15 14.999 15z"/></g></svg>