<?xml version="1.0" encoding="iso-8859-1"?>
<!-- Generator: Adobe Illustrator 19.1.0, SVG Export Plug-In . SVG Version: 6.00 Build 0)  -->
<svg version="1.1" id="Capa_1" xmlns="http://www.w3.org/2000/svg" xmlns:xlink="http://www.w3.org/1999/xlink" x="0px" y="0px"
	 viewBox="0 0 559.463 559.463" style="enable-background:new 0 0 559.463 559.463;" xml:space="preserve">
<g>
	<path d="M380.035,263.52c17.787,0,32.198-14.429,32.198-32.216s-14.411-32.207-32.198-32.207c-17.778,0-32.189,14.42-32.189,32.207
		S362.256,263.52,380.035,263.52z"/>
	<path d="M194.89,263.52c17.787,0,32.198-14.429,32.198-32.216s-14.411-32.207-32.198-32.207c-17.787,0-32.207,14.42-32.207,32.207
		S177.103,263.52,194.89,263.52z"/>
	<path d="M312.505,339.622h-44.724c-57.707,0-102.916,43.805-102.916,99.985c0,7.435,6.034,13.363,13.468,13.363
		c7.434,0,13.468-5.849,13.468-13.284c0-41.078,33.365-73.065,75.979-73.065h44.724c42.605,0,75.979,32.545,75.979,74.386
		c0,7.443,6.034,13.35,13.468,13.35c7.443,0,13.468-5.874,13.468-13.318C415.42,385.04,369.251,339.622,312.505,339.622z"/>
	<path d="M279.741,0c-40.585,0-79.64,8.505-116.185,25.242c-6.274-7.311-11.15-12.293-12.634-13.785
		c-2.568-2.568-6.312-4.067-9.679-3.96c-3.636,0.036-7.084,1.544-9.598,4.166c-1.484,1.542-29.657,31.275-43.997,65.04
		c-0.629,0.428-1.237,0.901-1.804,1.448C30.533,131.397,0.067,202.985,0.067,279.736c0,154.239,125.462,279.727,279.673,279.727
		c154.185,0,279.646-125.488,279.655-279.727C559.396,125.488,433.935,0,279.741,0z M141.664,41.159
		c14.33,16.584,34.587,44.023,37.038,64.899c1.562,13.325-0.278,23.031-5.45,28.849c-5.639,6.339-16.359,9.544-31.875,9.544
		c-14.869,0-24.997-2.981-30.106-8.853c-4.92-5.657-6.429-15.489-4.507-29.244C110.058,82.776,129.641,55.813,141.664,41.159z
		 M279.741,532.527c-139.361,0-252.737-113.403-252.737-252.791c0-56.745,18.435-110.36,52.508-154.341
		c1.258,11.234,5.073,20.568,11.43,27.883c10.604,12.193,27.098,18.119,50.434,18.119c23.543,0,41.033-6.249,51.997-18.577
		c10.514-11.825,14.573-28.607,12.086-49.904c-2.232-18.997-13.252-39.171-24.848-55.766c31.321-13.4,64.607-20.204,99.13-20.204
		c139.343,0,252.719,113.403,252.719,252.791S419.093,532.527,279.741,532.527z"/>
</g>
<g>
</g>
<g>
</g>
<g>
</g>
<g>
</g>
<g>
</g>
<g>
</g>
<g>
</g>
<g>
</g>
<g>
</g>
<g>
</g>
<g>
</g>
<g>
</g>
<g>
</g>
<g>
</g>
<g>
</g>
</svg>
