<?xml version="1.0" encoding="UTF-8" standalone="no"?>
<!DOCTYPE svg PUBLIC "-//W3C//DTD SVG 1.1//EN" "http://www.w3.org/Graphics/SVG/1.1/DTD/svg11.dtd">
<svg version="1.1" xmlns="http://www.w3.org/2000/svg" xmlns:xlink="http://www.w3.org/1999/xlink" preserveAspectRatio="xMidYMid meet" viewBox="-1 -1 644 644" width="90" height="90"><defs><path d="M320 0C234.53 0 154.17 33.29 93.73 93.73C33.29 154.17 0 234.53 0 320C0 405.48 33.29 485.83 93.73 546.28C154.17 606.71 234.53 640 320 640C405.48 640 485.84 606.71 546.27 546.28C606.71 485.84 640 405.48 640 320C640 234.53 606.71 154.17 546.27 93.73C485.84 33.29 405.48 0 320 0Z" id="bq0o4NaKo"></path><path d="M320 0C320 0 320 0 320 0L320 640C320 640 320 640 320 640C405.48 640 485.84 606.72 546.27 546.28C606.71 485.84 640 405.48 640 320C640 234.53 606.71 154.17 546.27 93.73C485.83 33.29 405.47 0 320 0Z" id="bXk221pfb"></path><path d="M338.75 301.25C338.75 204.05 338.75 150.05 338.75 139.25C338.75 128.9 330.36 120.5 320 120.5C309.65 120.5 301.25 128.9 301.25 139.25C301.25 150.05 301.25 204.05 301.25 301.25C204.05 301.25 150.05 301.25 139.25 301.25C128.9 301.25 120.5 309.65 120.5 320C120.5 330.36 128.9 338.75 139.25 338.75C150.05 338.75 204.05 338.75 301.25 338.75C301.25 435.95 301.25 489.95 301.25 500.75C301.25 511.11 309.64 519.5 320 519.5C330.35 519.5 338.75 511.11 338.75 500.75C338.75 489.95 338.75 435.95 338.75 338.75C435.95 338.75 489.95 338.75 500.75 338.75C511.1 338.75 519.5 330.36 519.5 320C519.5 309.65 511.1 301.25 500.75 301.25C479.15 301.25 425.15 301.25 338.75 301.25Z" id="c16iUtxSU"></path><path d="M338.75 301.25C338.75 204.05 338.75 150.05 338.75 139.25C338.75 128.9 330.36 120.5 320 120.5C320 120.5 320 120.5 320 120.5C320 359.9 320 492.9 320 519.5C330.35 519.5 338.75 511.11 338.75 500.75C338.75 489.95 338.75 435.95 338.75 338.75C435.95 338.75 489.95 338.75 500.75 338.75C511.1 338.75 519.5 330.36 519.5 320C519.5 309.65 511.1 301.25 500.75 301.25C479.15 301.25 425.15 301.25 338.75 301.25Z" id="hE5SREFye"></path></defs><g><g><use xlink:href="#bq0o4NaKo" opacity="1" fill="#3e7fb1" fill-opacity="1"></use><g><use xlink:href="#bq0o4NaKo" opacity="1" fill-opacity="0" stroke="#000000" stroke-width="1" stroke-opacity="0"></use></g></g><g><use xlink:href="#bXk221pfb" opacity="1" fill="#234661" fill-opacity="1"></use><g><use xlink:href="#bXk221pfb" opacity="1" fill-opacity="0" stroke="#000000" stroke-width="1" stroke-opacity="0"></use></g></g><g><use xlink:href="#c16iUtxSU" opacity="1" fill="#f2f2f2" fill-opacity="1"></use><g><use xlink:href="#c16iUtxSU" opacity="1" fill-opacity="0" stroke="#000000" stroke-width="1" stroke-opacity="0"></use></g></g><g><use xlink:href="#hE5SREFye" opacity="1" fill="#d9d9d9" fill-opacity="1"></use><g><use xlink:href="#hE5SREFye" opacity="1" fill-opacity="0" stroke="#000000" stroke-width="1" stroke-opacity="0"></use></g></g></g></svg>