<svg id="Capa_1" enable-background="new 0 0 512 512" height="512" viewBox="0 0 512 512" fill="#224a68" width="512" xmlns="http://www.w3.org/2000/svg"><g><path d="m407 361c-24.813 0-45 20.187-45 45 0 8.284 6.716 15 15 15s15-6.716 15-15c0-8.271 6.729-15 15-15s15 6.729 15 15c0 8.284 6.716 15 15 15s15-6.716 15-15c0-24.813-20.187-45-45-45z"/><path d="m407 301c-47.476 0-87.686 31.675-100.626 75h-50.374c-24.813 0-45-20.187-45-45v-46.103c3.888 3.282 27.108 22.667 35.238 29.635 2.809 2.407 6.285 3.611 9.762 3.611s6.953-1.204 9.762-3.611c8.13-6.969 15.793-13.365 23.204-19.551 41.819-34.909 72.034-60.131 72.034-97.812 0-22.548-10.81-43.832-30-55.209v-20.96c0-41.459-33.535-76-75-76h-78.728c-9.75-26.158-44.601-45-87.272-45-50.467 0-90 26.355-90 60s39.533 60 90 60c42.671 0 77.522-18.842 87.272-45h78.728c24.393 0 45 21.065 45 46v12.857c-17.726 0-33.207 7.676-45 22.253-11.793-14.577-27.274-22.253-45-22.253-34.525 0-60 28.341-60 63.312 0 23.187 11.453 41.658 30 60.57v73.261c0 41.355 33.645 75 75 75h46c0 58.448 47.103 106 105 106s105-47.552 105-106c0-57.897-47.103-105-105-105zm-317-211c-34.34 0-60-15.839-60-30s25.66-30 60-30 60 15.839 60 30-25.66 30-60 30zm91 107.169c0-16.149 10.514-33.312 30-33.312 22.151 0 30.199 26.404 30.575 27.686 1.836 6.44 7.711 10.926 14.413 10.926 6.727 0 12.62-4.438 14.433-10.915.331-1.131 8.359-27.697 30.579-27.697 19.486 0 30 17.163 30 33.312 0 23.645-23.058 42.893-61.259 74.781-4.469 3.73-9.029 7.537-13.741 11.509-4.711-3.972-9.271-7.779-13.741-11.509-37.617-31.401-61.259-51.003-61.259-74.781zm226 284.831c-41.355 0-75-34.094-75-76 0-41.355 33.645-75 75-75s75 33.645 75 75c0 41.906-33.645 76-75 76z"/><path d="m78.251 193.901 28.978 7.765c8.067 2.161 16.245-2.67 18.371-10.607 2.144-8.002-2.604-16.227-10.606-18.371l-28.978-7.765c-8.004-2.145-16.228 2.605-18.371 10.607-2.145 8.002 2.604 16.227 10.606 18.371z"/><path d="m397.006 279.312 28.978 7.765c8.036 2.154 16.237-2.641 18.371-10.606 2.144-8.002-2.604-16.227-10.606-18.371l-28.978-7.765c-8.005-2.145-16.228 2.604-18.371 10.606-2.144 8.001 2.604 16.226 10.606 18.371z"/><path d="m67.645 276.47c2.133 7.963 10.331 12.761 18.371 10.606l28.978-7.765c8.002-2.144 12.75-10.369 10.606-18.371s-10.366-12.751-18.371-10.606l-28.978 7.765c-8.002 2.144-12.751 10.369-10.606 18.371z"/><path d="m404.771 201.666 28.978-7.765c8.002-2.144 12.75-10.369 10.606-18.371s-10.367-12.751-18.371-10.607l-28.978 7.765c-8.002 2.144-12.75 10.369-10.606 18.371 2.133 7.963 10.33 12.761 18.371 10.607z"/></g></svg>