<svg id="Capa_1" enable-background="new 0 0 512 512" height="512" viewBox="0 0 512 512" width="512" xmlns="http://www.w3.org/2000/svg"><g><path d="m409.945 359.201-50.252-20.101v-43.019c0-57.177-46.517-103.693-103.693-103.693s-103.693 46.517-103.693 103.693v43.019l-50.252 20.1c-18.17 7.268-29.91 24.608-29.91 44.178v101.122c0 4.142 3.358 7.5 7.5 7.5s7.5-3.358 7.5-7.5v-101.122c0-13.4 8.039-25.274 20.481-30.25l44.681-17.873v109.165c0 4.142 3.358 7.5 7.5 7.5h56.629v32.58c0 4.142 3.358 7.5 7.5 7.5s7.5-3.358 7.5-7.5v-256.516c0-4.705 3.828-8.532 8.532-8.532s8.532 3.828 8.532 8.532v31.756c0 4.142 3.358 7.5 7.5 7.5h32.064c9.125 0 16.548 7.423 16.548 16.548v27.519c0 5.545-2.755 10.693-7.369 13.769l-13.34 8.893c-2.086 1.391-3.34 3.732-3.34 6.24v144.291c0 4.142 3.358 7.5 7.5 7.5s7.5-3.358 7.5-7.5v-32.581h56.629c4.142 0 7.5-3.358 7.5-7.5v-109.164l44.681 17.873c12.441 4.976 20.48 16.85 20.48 30.25v101.122c0 4.142 3.358 7.5 7.5 7.5s7.5-3.358 7.5-7.5v-101.122c.002-19.569-11.738-36.91-29.908-44.177zm-114.381 97.718v-92.696l10-6.667c8.797-5.864 14.048-15.677 14.048-26.25v-27.519c0-17.396-14.152-31.548-31.548-31.548h-24.564v-24.256c0-12.976-10.557-23.532-23.532-23.532s-23.532 10.557-23.532 23.532v208.936h-49.129v-160.838c0-48.906 39.788-88.693 88.693-88.693s88.693 39.788 88.693 88.693v160.839h-49.129z"/><path d="m155.798 191.355h4.524v16.548c0 4.142 3.358 7.5 7.5 7.5s7.5-3.358 7.5-7.5v-24.048c0-4.142-3.358-7.5-7.5-7.5h-12.024c-3.537 0-6.927-1.505-9.303-4.131-2.407-2.66-3.533-6.115-3.171-9.73.63-6.292 6.611-11.22 13.616-11.22h10.882c12.976 0 23.532-10.557 23.532-23.533v-16.032c0-9.125 7.423-16.548 16.548-16.548h96.193c9.125 0 16.548 7.423 16.548 16.548v16.032c0 12.976 10.557 23.533 23.532 23.533h12.024c3.537 0 6.927 1.505 9.303 4.13 2.407 2.66 3.533 6.115 3.171 9.729-.629 6.292-6.61 11.221-13.616 11.221h-10.883c-1.989 0-3.897.79-5.303 2.197-1.407 1.407-2.197 3.314-2.197 5.304l.001 24.048c0 4.142 3.358 7.5 7.5 7.5s7.5-3.358 7.5-7.5v-16.548h3.382c14.617 0 27.154-10.861 28.542-24.727.778-7.771-1.764-15.531-6.975-21.288-.293-.323-.595-.636-.901-.944 0-.002 0-.004 0-.005v-72.762c.003-39.496-32.13-71.629-71.626-71.629h-66.727c-15.945 0-30.745 7.921-39.589 21.188l-1.907 2.861h-12.019c-26.236 0-47.581 21.345-47.581 47.581v40.081c0 4.142 3.358 7.5 7.5 7.5s7.5-3.358 7.5-7.5v-40.082c0-17.965 14.616-32.581 32.581-32.581h16.032c2.507 0 4.849-1.253 6.24-3.339l4.134-6.201c6.056-9.084 16.19-14.508 27.109-14.508h66.727c31.225 0 56.629 25.404 56.629 56.629v65.026c-1.486-.249-2.998-.38-4.524-.38h-12.024c-4.705 0-8.532-3.828-8.532-8.533v-16.032c0-17.396-14.152-31.548-31.548-31.548h-96.193c-17.396 0-31.548 14.152-31.548 31.548v16.032c0 4.705-3.828 8.533-8.532 8.533h-10.882c-14.617 0-27.154 10.861-28.542 24.726-.778 7.771 1.764 15.531 6.974 21.289 5.212 5.76 12.657 9.065 20.423 9.065z"/><path d="m201.347 179.481c1.371 2.467 3.927 3.859 6.563 3.859 1.232 0 2.482-.304 3.635-.945l28.858-16.032c2.381-1.323 3.858-3.833 3.858-6.556s-1.477-5.233-3.858-6.556l-28.858-16.032c-3.621-2.011-8.187-.707-10.198 2.914-2.012 3.621-.707 8.187 2.914 10.199l17.057 9.476-17.057 9.476c-3.621 2.01-4.926 6.576-2.914 10.197z"/><path d="m310.653 140.132c-2.011-3.62-6.578-4.926-10.198-2.914l-28.858 16.032c-2.381 1.323-3.858 3.833-3.858 6.556s1.477 5.233 3.858 6.556l28.858 16.032c1.154.641 2.403.945 3.635.945 2.635 0 5.192-1.392 6.563-3.859 2.012-3.621.707-8.187-2.914-10.199l-17.057-9.476 17.057-9.476c3.621-2.01 4.926-6.576 2.914-10.197z"/><path d="m143.258 215.919c0-4.142-3.358-7.5-7.5-7.5h-64.129c-4.142 0-7.5 3.358-7.5 7.5s3.358 7.5 7.5 7.5h64.129c4.142 0 7.5-3.357 7.5-7.5z"/><path d="m132.404 241.276-32.065 16.032c-3.705 1.852-5.207 6.357-3.354 10.062 1.314 2.628 3.962 4.147 6.714 4.147 1.127 0 2.271-.255 3.348-.793l32.065-16.032c3.705-1.852 5.207-6.357 3.354-10.062-1.852-3.705-6.357-5.208-10.062-3.354z"/><path d="m440.371 208.419h-64.129c-4.142 0-7.5 3.358-7.5 7.5s3.358 7.5 7.5 7.5h64.129c4.142 0 7.5-3.358 7.5-7.5s-3.358-7.5-7.5-7.5z"/><path d="m404.953 270.724c1.077.539 2.221.793 3.348.793 2.751 0 5.4-1.52 6.714-4.147 1.853-3.705.351-8.21-3.354-10.062l-32.065-16.032c-3.705-1.853-8.209-.351-10.062 3.354s-.351 8.21 3.354 10.062z"/></g></svg>